<mxfile host="app.diagrams.net" modified="2021-07-24T08:08:46.763Z" agent="5.0 (Windows NT 10.0; Win64; x64) AppleWebKit/537.36 (KHTML, like Gecko) Chrome/92.0.4515.107 Safari/537.36" etag="JPey_sq2fZsaJPvwzSUS" version="14.9.2" type="github">
  <diagram id="mvWnHaUZkxt0yaKvPiz3" name="Страница 1">
    <mxGraphModel dx="562" dy="302" grid="1" gridSize="10" guides="1" tooltips="1" connect="1" arrows="1" fold="1" page="1" pageScale="1" pageWidth="827" pageHeight="1169" math="0" shadow="0">
      <root>
        <mxCell id="0" />
        <mxCell id="1" parent="0" />
        <mxCell id="EqCP4BVdxGuSAQ8ki5jC-1" value="View" style="swimlane;" vertex="1" parent="1">
          <mxGeometry x="120" y="190" width="200" height="200" as="geometry" />
        </mxCell>
        <mxCell id="EqCP4BVdxGuSAQ8ki5jC-2" value="name.unity&lt;br&gt;сцена по тестированию задачи" style="text;html=1;align=left;verticalAlign=middle;resizable=0;points=[];autosize=1;strokeColor=none;" vertex="1" parent="EqCP4BVdxGuSAQ8ki5jC-1">
          <mxGeometry x="5" y="30" width="190" height="30" as="geometry" />
        </mxCell>
      </root>
    </mxGraphModel>
  </diagram>
</mxfile>
